<?xml version="1.0" encoding="UTF-8"?>
<svg xmlns="http://www.w3.org/2000/svg" xmlns:xlink="http://www.w3.org/1999/xlink" width="32px" height="32px" viewBox="0 0 32 32" version="1.1">
<g id="surface1">
<path style=" stroke:none;fill-rule:evenodd;fill:rgb(88.627451%,26.27451%,16.078431%);fill-opacity:1;" d="M 16 30.738281 L 21.890625 12.601562 L 10.109375 12.601562 Z M 16 30.738281 "/>
<path style=" stroke:none;fill-rule:evenodd;fill:rgb(98.823529%,42.745098%,14.901961%);fill-opacity:1;" d="M 16 30.738281 L 10.109375 12.601562 L 1.851562 12.601562 Z M 16 30.738281 "/>
<path style=" stroke:none;fill-rule:evenodd;fill:rgb(98.823529%,63.921569%,14.901961%);fill-opacity:1;" d="M 1.851562 12.601562 L 0.0585938 18.113281 C -0.101562 18.617188 0.0742188 19.167969 0.503906 19.480469 L 16 30.738281 Z M 1.851562 12.601562 "/>
<path style=" stroke:none;fill-rule:evenodd;fill:rgb(88.627451%,26.27451%,16.078431%);fill-opacity:1;" d="M 1.851562 12.601562 L 10.109375 12.601562 L 6.558594 1.683594 C 6.375 1.121094 5.582031 1.121094 5.398438 1.683594 Z M 1.851562 12.601562 "/>
<path style=" stroke:none;fill-rule:evenodd;fill:rgb(98.823529%,42.745098%,14.901961%);fill-opacity:1;" d="M 16 30.738281 L 21.890625 12.601562 L 30.148438 12.601562 Z M 16 30.738281 "/>
<path style=" stroke:none;fill-rule:evenodd;fill:rgb(98.823529%,63.921569%,14.901961%);fill-opacity:1;" d="M 30.148438 12.601562 L 31.941406 18.109375 C 32.101562 18.613281 31.925781 19.164062 31.496094 19.472656 L 16 30.738281 Z M 30.148438 12.601562 "/>
<path style=" stroke:none;fill-rule:evenodd;fill:rgb(88.627451%,26.27451%,16.078431%);fill-opacity:1;" d="M 30.148438 12.601562 L 21.890625 12.601562 L 25.441406 1.679688 C 25.625 1.117188 26.417969 1.117188 26.601562 1.679688 Z M 30.148438 12.601562 "/>
</g>
</svg>
